<svg width="12" height="12" viewBox="0 0 12 12" fill="none" xmlns="http://www.w3.org/2000/svg">
<path d="M6 2C5.47471 2 4.95457 2.10346 4.46927 2.30448C3.98396 2.5055 3.54301 2.80014 3.17157 3.17157C2.42143 3.92172 2 4.93913 2 6C2 7.06087 2.42143 8.07828 3.17157 8.82843C3.54301 9.19986 3.98396 9.4945 4.46927 9.69552C4.95457 9.89654 5.47471 10 6 10C7.06087 10 8.07828 9.57857 8.82843 8.82843C9.57857 8.07828 10 7.06087 10 6C10 5.47471 9.89654 4.95457 9.69552 4.46927C9.4945 3.98396 9.19986 3.54301 8.82843 3.17157C8.45699 2.80014 8.01604 2.5055 7.53073 2.30448C7.04543 2.10346 6.52529 2 6 2V2Z" fill="white"/>
</svg>
