<svg width="24" height="24" viewBox="0 0 24 24" fill="none" xmlns="http://www.w3.org/2000/svg">
<g clip-path="url(#clip0_6581_193483)">
<path d="M6.34368 4.84944L6.34368 4.84946L6.34763 4.84945L10.5062 4.84314L10.5002 10.4968L4.84652 10.5028L4.85283 6.34425L4.85284 6.34425L4.85282 6.34031C4.84752 5.50878 5.51215 4.84415 6.34368 4.84944ZM13.5013 19.1576L13.5073 13.5039L19.1609 13.4979L19.1546 17.6564L19.1546 17.6564L19.1546 17.6604C19.1599 18.4919 18.4953 19.1565 17.6638 19.1513L17.6598 19.1512L13.5013 19.1576ZM10.5062 19.1576L6.34763 19.1512L6.34763 19.1512L6.34368 19.1513C5.51215 19.1565 4.84752 18.4919 4.85282 17.6604L4.85283 17.6564L4.84651 13.4979L10.5002 13.5039L10.5062 19.1576ZM13.5013 4.84314L17.657 4.84945C18.0989 4.85553 18.461 5.02264 18.7212 5.28283C18.9814 5.54303 19.1485 5.90513 19.1546 6.34712L19.1609 10.5028L13.5073 10.4968L13.5013 4.84314Z" fill="white" stroke="white"/>
</g>
<defs>
<clipPath id="clip0_6581_193483">
<rect width="24" height="24" fill="white"/>
</clipPath>
</defs>
</svg>
